<?xml version="1.0" encoding="UTF-8" standalone="no"?>
<!-- Created with Inkscape (http://www.inkscape.org/) -->

<svg
   width="297.36441mm"
   height="113.69815mm"
   viewBox="0 0 297.36441 113.69815"
   version="1.1"
   id="svg1"
   xml:space="preserve"
   sodipodi:docname="Terminal Architect Logo final.svg"
   inkscape:version="1.4.2 (ebf0e94, 2025-05-08)"
   xmlns:inkscape="http://www.inkscape.org/namespaces/inkscape"
   xmlns:sodipodi="http://sodipodi.sourceforge.net/DTD/sodipodi-0.dtd"
   xmlns:xlink="http://www.w3.org/1999/xlink"
   xmlns="http://www.w3.org/2000/svg"
   xmlns:svg="http://www.w3.org/2000/svg"><sodipodi:namedview
     id="namedview1"
     pagecolor="#ffffff"
     bordercolor="#000000"
     borderopacity="0.25"
     inkscape:showpageshadow="2"
     inkscape:pageopacity="0.0"
     inkscape:pagecheckerboard="0"
     inkscape:deskcolor="#d1d1d1"
     inkscape:document-units="mm"
     showguides="false"
     inkscape:zoom="1.4142136"
     inkscape:cx="175.36248"
     inkscape:cy="201.87899"
     inkscape:window-width="1920"
     inkscape:window-height="1017"
     inkscape:window-x="-8"
     inkscape:window-y="-8"
     inkscape:window-maximized="1"
     inkscape:current-layer="layer1"><sodipodi:guide
       position="131.05843,121.78963"
       orientation="0,-1"
       id="guide1"
       inkscape:locked="false" /><sodipodi:guide
       position="120.12381,113.49405"
       orientation="0,-1"
       id="guide2"
       inkscape:locked="false" /><sodipodi:guide
       position="119.44053,111.69474"
       orientation="1,0"
       id="guide3"
       inkscape:locked="false" /><sodipodi:guide
       position="322.01835,224.61391"
       orientation="1,0"
       id="guide4"
       inkscape:locked="false" /><sodipodi:guide
       position="105.14529,119.06786"
       orientation="1,0"
       id="guide5"
       inkscape:locked="false" /><sodipodi:guide
       position="119.44052,74.633838"
       orientation="0,-1"
       id="guide6"
       inkscape:locked="false" /><sodipodi:guide
       position="144.4901,125.2039"
       orientation="1,0"
       id="guide7"
       inkscape:locked="false" /><sodipodi:guide
       position="151.22204,111.61119"
       orientation="1,0"
       id="guide8"
       inkscape:locked="false" /><sodipodi:guide
       position="175.3475,74.633838"
       orientation="1,0"
       id="guide9"
       inkscape:locked="false" /><sodipodi:guide
       position="166.55411,74.633838"
       orientation="1,0"
       id="guide10"
       inkscape:locked="false" /><sodipodi:guide
       position="153.60559,121.78963"
       orientation="1,0"
       id="guide11"
       inkscape:locked="false" /><sodipodi:guide
       position="143.58776,119.74505"
       orientation="1,0"
       id="guide12"
       inkscape:locked="false" /><sodipodi:guide
       position="141.17244,113.49405"
       orientation="1,0"
       id="guide13"
       inkscape:locked="false" /><sodipodi:guide
       position="149.04784,121.78963"
       orientation="1,0"
       id="guide14"
       inkscape:locked="false" /><sodipodi:guide
       position="123.67688,77.307288"
       orientation="1,0"
       id="guide15"
       inkscape:locked="false" /><sodipodi:guide
       position="130.40882,74.633848"
       orientation="1,0"
       id="guide16"
       inkscape:locked="false" /><sodipodi:guide
       position="370.38129,-35.909875"
       orientation="0,-1"
       id="guide24"
       inkscape:locked="false" /><sodipodi:guide
       position="364.05808,-83.067386"
       orientation="0,-1"
       id="guide25"
       inkscape:locked="false" /><inkscape:page
       x="0"
       y="-2.7111836e-14"
       width="297.36441"
       height="113.69816"
       id="page2"
       margin="0"
       bleed="0" /></sodipodi:namedview><defs
     id="defs1"><linearGradient
       id="linearGradient27"
       inkscape:collect="always"><stop
         style="stop-color:#87ba4d;stop-opacity:1;"
         offset="0"
         id="stop27" /><stop
         style="stop-color:#000000;stop-opacity:1;"
         offset="0.72632647"
         id="stop28" /></linearGradient><radialGradient
       inkscape:collect="always"
       xlink:href="#linearGradient27"
       id="radialGradient28"
       cx="-44.735004"
       cy="28.607626"
       fx="-44.735004"
       fy="28.607626"
       r="148.68221"
       gradientTransform="matrix(-3.0622034e-6,1.5838667,-1.9005294,-1.2981693e-8,9.6344917,191.29503)"
       gradientUnits="userSpaceOnUse" /></defs><g
     inkscape:label="Calque 1"
     inkscape:groupmode="layer"
     id="layer1"
     transform="translate(44.735004,-120.44075)"><rect
       style="fill:url(#radialGradient28);fill-opacity:1;stroke:none;stroke-width:1.5;stroke-linecap:round;stroke-linejoin:round;stroke-dasharray:none;stroke-opacity:1;paint-order:normal"
       id="rect24"
       width="297.36441"
       height="113.69816"
       x="-44.735004"
       y="120.44075"
       rx="0.0966307"
       ry="0.0966307"
       inkscape:export-filename="Terminal Architect Logo final.png"
       inkscape:export-xdpi="96"
       inkscape:export-ydpi="96" /><g
       id="g24"
       transform="translate(-58.77422,41.3636)"><path
         id="path13"
         style="fill:#87ba4d;fill-opacity:1;stroke:none;stroke-width:0.352777;stroke-linejoin:bevel"
         d="m 106.48704,112.34921 -3.26802,7.40369 17.92707,38.31445 a 2.4954648,2.4954648 0 0 0 2.26033,1.43764 h 5.61878 a 1.0161702,1.0161702 0 0 0 0.92242,-1.44177 l -20.41219,-44.27223 a 2.4800533,2.4800533 0 0 0 -2.25257,-1.44178 z" /><path
         id="path21"
         style="fill:#ffffff;fill-opacity:1;stroke:none;stroke-width:0.352777;stroke-linejoin:bevel"
         d="m 61.997766,112.34921 c -0.876752,0 -1.5875,0.71075 -1.5875,1.5875 v 5.12062 c 0,0.87675 0.710748,1.5875 1.5875,1.5875 h 11.120252 c 0.876752,0 1.5875,0.71075 1.5875,1.5875 v 35.68516 c 0,0.87675 0.710748,1.5875 1.5875,1.5875 h 2.648933 l 4.236434,-9.59838 v -27.67428 c 0,-0.87675 0.710748,-1.5875 1.5875,-1.5875 h 11.327991 l 3.640507,-8.29568 z"
         sodipodi:nodetypes="ssssssssccssccs" /><path
         style="baseline-shift:baseline;display:inline;overflow:visible;opacity:1;vector-effect:none;fill:#87ba4d;stroke-linecap:round;stroke-linejoin:round;enable-background:accumulate;stop-color:#000000;stop-opacity:1"
         d="m 96.923828,141.32227 a 0.75,0.75 0 0 0 -1.058594,0.0859 0.75,0.75 0 0 0 0.08594,1.05664 l 3.425781,2.91211 -3.447266,3.16211 a 0.75,0.75 0 0 0 -0.04492,1.06055 0.75,0.75 0 0 0 1.060546,0.0449 l 4.072265,-3.73633 a 0.750075,0.750075 0 0 0 -0.0195,-1.12304 z m 6.712892,7.01953 a 0.75,0.75 0 0 0 -0.75,0.75 0.75,0.75 0 0 0 0.75,0.75 h 5.23437 a 0.75,0.75 0 0 0 0.75,-0.75 0.75,0.75 0 0 0 -0.75,-0.75 z"
         id="path23" /></g><path
       style="fill:none;fill-opacity:1;stroke:#87ba4d;stroke-width:1.5;stroke-linecap:round;stroke-linejoin:round;stroke-dasharray:none;stroke-opacity:1;paint-order:normal"
       d="M 76.41032,200.86858 V 153.71107"
       id="path25" /><path
       style="font-size:32.7916px;font-family:'Microsoft Yi Baiti';-inkscape-font-specification:'Microsoft Yi Baiti';fill:#ffffff;stroke-width:10.7253;stroke-linecap:round;stroke-linejoin:round"
       d="M 98.929363,158.71223 H 92.79695 v 16.2517 h -1.280922 v -16.2517 h -6.068367 v -1.28092 h 13.481702 z m 15.835397,16.2517 h -12.66512 v -17.53262 h 12.23281 v 1.28092 h -10.95188 v 6.48467 h 10.26338 v 1.28092 h -10.26338 v 7.20519 h 11.38419 z m 17.98094,0 h -1.40902 l -1.74525,-4.65935 q -0.25619,-0.67249 -0.57642,-1.26492 -0.30421,-0.59242 -0.72051,-1.02473 -0.4163,-0.44833 -0.9607,-0.70451 -0.52838,-0.25618 -1.24889,-0.25618 h -6.13242 v 7.90969 h -1.28092 v -17.53262 h 7.89368 q 1.1048,0 2.12953,0.20815 1.04075,0.19214 1.84133,0.70451 0.81659,0.51237 1.29693,1.42502 0.48035,0.89665 0.48035,2.30566 0,0.88064 -0.22416,1.64919 -0.20815,0.75254 -0.65648,1.36098 -0.43231,0.59242 -1.1208,1.02474 -0.67249,0.4163 -1.58514,0.60843 0.49635,0.38428 0.81658,0.73653 0.32023,0.35226 0.5444,0.75255 0.24017,0.40028 0.4163,0.88063 0.19213,0.48034 0.43231,1.10479 z m -12.79321,-9.19062 h 6.08438 q 1.29693,0 2.2256,-0.19213 0.92867,-0.19214 1.5211,-0.62445 0.60844,-0.44833 0.89664,-1.15283 0.28821,-0.70451 0.28821,-1.72925 0,-1.8093 -1.15283,-2.57785 -1.13682,-0.78457 -3.41045,-0.78457 h -6.45265 z m 33.01576,9.19062 h -1.28092 v -15.43511 l -6.30854,15.43511 h -1.34497 l -6.29253,-15.43511 v 15.43511 h -1.28092 v -17.53262 h 1.85734 l 6.3886,15.93147 6.43663,-15.93147 h 1.82531 z m 6.26051,0 h -1.28092 v -17.53262 h 1.28092 z m 18.60539,0 h -1.68121 l -10.6957,-16.01152 v 16.01152 h -1.28092 v -17.53262 h 1.76127 l 10.61564,15.9795 v -15.9795 h 1.28092 z m 18.31718,0 h -1.5371 l -2.14555,-5.63606 h -8.63021 q -0.46433,1.32896 -1.00873,2.81803 -0.54439,1.47306 -1.04074,2.81803 h -1.36098 q 0.86462,-2.27364 1.69722,-4.45121 0.84861,-2.17756 1.68121,-4.32311 0.8326,-2.16155 1.6652,-4.33912 0.84861,-2.17757 1.71323,-4.43519 h 1.8093 z m -4.05091,-6.64478 -4.06693,-9.75102 -3.85878,9.75102 z m 17.16435,6.64478 h -10.32743 v -17.53262 h 1.28092 v 16.2517 h 9.04651 z"
       id="text25"
       aria-label="TERMINAL" /><path
       style="font-size:28.7731px;font-family:'Microsoft Yi Baiti';-inkscape-font-specification:'Microsoft Yi Baiti';fill:#87ba4d;stroke-width:9.41095;stroke-linecap:round;stroke-linejoin:round"
       d="m 98.811826,198.68079 h -1.348739 l -1.882615,-4.94538 h -7.572608 q -0.407431,1.1661 -0.88511,2.47269 -0.477678,1.29254 -0.913208,2.47269 H 85.01535 q 0.758665,-1.99501 1.489232,-3.90573 0.744617,-1.91071 1.475184,-3.79333 0.730567,-1.89666 1.461134,-3.80737 0.744616,-1.91072 1.503282,-3.89168 h 1.587578 z m -3.554489,-5.83049 -3.568539,-8.55606 -3.385897,8.55606 z m 18.292273,5.83049 h -1.23634 l -1.53138,-4.08837 q -0.22479,-0.59007 -0.50578,-1.1099 -0.26694,-0.51983 -0.63222,-0.89916 -0.36529,-0.39338 -0.84296,-0.61817 -0.46363,-0.22479 -1.09586,-0.22479 h -5.3809 v 6.94039 h -1.12395 v -15.38406 h 6.92634 q 0.9694,0 1.86856,0.18264 0.91321,0.1686 1.61568,0.61818 0.71652,0.44957 1.138,1.25039 0.42148,0.78676 0.42148,2.02311 0,0.77271 -0.19669,1.44708 -0.18265,0.66032 -0.57603,1.1942 -0.37933,0.51982 -0.98345,0.89916 -0.59008,0.36528 -1.39089,0.53387 0.43553,0.33719 0.71652,0.64627 0.28098,0.30909 0.47768,0.66032 0.21074,0.35124 0.36528,0.77272 0.16859,0.42148 0.37933,0.96941 z m -11.22544,-8.06434 h 5.33876 q 1.138,0 1.95286,-0.16859 0.81486,-0.16859 1.33469,-0.54793 0.53387,-0.39338 0.78676,-1.01155 0.25289,-0.61817 0.25289,-1.51733 0,-1.58758 -1.01155,-2.26195 -0.99751,-0.68842 -2.99252,-0.68842 h -5.66189 z m 25.82273,-3.20325 q -0.15454,-0.68842 -0.57602,-1.2785 -0.42148,-0.60412 -1.0537,-1.03965 -0.63223,-0.44958 -1.46114,-0.70247 -0.81486,-0.25289 -1.75617,-0.25289 -1.33469,0 -2.43054,0.43553 -1.0818,0.43553 -1.85452,1.29255 -0.75866,0.84296 -1.18014,2.12145 -0.40743,1.26444 -0.40743,2.95037 0,1.68592 0.40743,2.97846 0.42148,1.27849 1.18014,2.14955 0.77272,0.87106 1.84047,1.32064 1.0818,0.44958 2.40244,0.44958 1.99501,0 3.28755,-0.88511 1.29255,-0.89916 1.60163,-2.61318 h 1.1661 q -0.16859,1.09585 -0.68842,1.96691 -0.51983,0.85701 -1.30659,1.44709 -0.78677,0.59007 -1.81237,0.89916 -1.0256,0.30908 -2.2198,0.30908 -1.62972,0 -2.93632,-0.56197 -1.29254,-0.57603 -2.20575,-1.61568 -0.9132,-1.03965 -1.40493,-2.51483 -0.49173,-1.48924 -0.49173,-3.3297 0,-1.82642 0.49173,-3.28756 0.49173,-1.46113 1.40493,-2.48673 0.92726,-1.03966 2.2198,-1.58758 1.30659,-0.56198 2.92227,-0.56198 1.1099,0 2.10741,0.32314 1.01155,0.32313 1.81236,0.91321 0.80082,0.57602 1.34874,1.39089 0.54793,0.80081 0.75867,1.77022 z m 16.33941,11.26759 h -1.138 v -7.65691 h -9.48332 v 7.65691 h -1.12395 v -15.38406 h 1.12395 v 6.6032 h 9.48332 v -6.6032 h 1.138 z m 5.61975,0 h -1.12395 v -15.38406 h 1.12395 z m 15.04687,-14.26011 h -5.38091 v 14.26011 h -1.12395 v -14.26011 h -5.32471 v -1.12395 h 11.82957 z m 13.89482,14.26011 h -11.11304 v -15.38406 h 10.73371 v 1.12395 h -9.60976 v 5.68999 h 9.00564 v 1.12395 h -9.00564 v 6.32222 h 9.98909 z m 14.61134,-11.26759 q -0.15454,-0.68842 -0.57602,-1.2785 -0.42148,-0.60412 -1.0537,-1.03965 -0.63222,-0.44958 -1.46114,-0.70247 -0.81486,-0.25289 -1.75617,-0.25289 -1.33469,0 -2.43054,0.43553 -1.0818,0.43553 -1.85451,1.29255 -0.75867,0.84296 -1.18015,2.12145 -0.40743,1.26444 -0.40743,2.95037 0,1.68592 0.40743,2.97846 0.42148,1.27849 1.18015,2.14955 0.77271,0.87106 1.84046,1.32064 1.0818,0.44958 2.40244,0.44958 1.99501,0 3.28756,-0.88511 1.29254,-0.89916 1.60162,-2.61318 h 1.1661 q -0.16859,1.09585 -0.68842,1.96691 -0.51982,0.85701 -1.30659,1.44709 -0.78676,0.59007 -1.81237,0.89916 -1.0256,0.30908 -2.2198,0.30908 -1.62972,0 -2.93631,-0.56197 -1.29255,-0.57603 -2.20575,-1.61568 -0.91321,-1.03965 -1.40494,-2.51483 -0.49173,-1.48924 -0.49173,-3.3297 0,-1.82642 0.49173,-3.28756 0.49173,-1.46113 1.40494,-2.48673 0.92725,-1.03966 2.2198,-1.58758 1.30659,-0.56198 2.92226,-0.56198 1.1099,0 2.10741,0.32314 1.01155,0.32313 1.81237,0.91321 0.80081,0.57602 1.34874,1.39089 0.54792,0.80081 0.75866,1.77022 z m 15.17331,-2.99252 h -5.3809 v 14.26011 h -1.12395 v -14.26011 h -5.32471 v -1.12395 h 11.82956 z"
       id="text26"
       aria-label="ARCHITECT" /></g></svg>
